<svg xmlns="http://www.w3.org/2000/svg" width="80" height="16" viewBox="0 0 80 16"><path fill="#FFF" d="M19 14v-2h10v2H19zm1-7h3V2h2v5h3l-4 4-4-4zm20-1c-3.2 0-6 2.5-6 7 1.1-1.7 2.4-3 6-3v3l6-5-6-5v3zm34-4h-4v2h-4v2h2v7a1 1 0 0 0 1 1h6a1 1 0 0 0 1-1V6h2V4h-4V2zm0 4v6h-4V6h4zM58.7 2.508c-1.125 0-2.1.575-2.7 1.438-.6-.863-1.575-1.438-2.7-1.438-1.8 0-3.3 1.438-3.3 3.164 0 3.164 6 7.839 6 7.839s6-4.675 6-7.839c0-1.726-1.5-3.164-3.3-3.164zm-48.048-.143a.962.962 0 0 0-1.392 0l-6.962 6.96c-.199.199-.298.397-.298.696v2.983c0 .597.397.995.994.995h2.983c.299 0 .498-.1.697-.298l6.961-6.962a.96.96 0 0 0 0-1.392l-2.983-2.983zM5.58 12.01H3.989v-1.59l5.966-5.967 1.592 1.591-5.967 5.967z"/></svg>