<svg xmlns="http://www.w3.org/2000/svg" width="120" height="40" viewBox="0 0 120 40"><path fill="#C3C2B9" d="M15 3c-.3-.6-.7-1-1.3-1H6.2c-.6 0-.9.4-1.2 1l-4 7v7c0 .6.4 1 1 1h16c.6 0 1-.4 1-1v-7l-4-7zM6.7 4h6.5l2.9 5h-3.6c-.3 0-.5.2-.5.5v.4c0 1-.8 2-1.8 2.1-1.2.1-2.2-.8-2.2-2v-.5c0-.3-.2-.5-.5-.5H3.9l2.8-5zm9.8 12h-13c-.3 0-.5-.2-.5-.5V11h3.1c.4 1.7 2 3 3.9 3s3.4-1.3 3.9-3H17v4.5c0 .3-.2.5-.5.5z"/><path fill-rule="evenodd" clip-rule="evenodd" fill="#C3C2B9" d="M37.7 6.5L30.5 14H26V9.5l7.5-7.2c.2-.2.4-.3.7-.3.3 0 .5.1.7.3l2.8 2.8c.4.4.4 1 0 1.4zm-3.5-2.1L28 10.3V12h1.7l5.9-6.2-1.4-1.4zM27 4h-2.5c-.3 0-.5.2-.5.5v11c0 .3.2.5.5.5h11c.3 0 .5-.2.5-.5V13c0-.6.4-1 1-1s1 .4 1 1v4c0 .6-.4 1-1 1H23c-.6 0-1-.4-1-1V3c0-.6.4-1 1-1h4c.6 0 1 .4 1 1s-.4 1-1 1zm31 13h-2c-.5 0-1-.5-1-1 0-.6.4-1 1-1h.5c.3 0 .5-.2.5-.5v-7c0-.3-.2-.5-.5-.5h-3.3l-.6-.6L51.2 5h-2.3l-1.4 1.4-.7.6h-3.3c-.3 0-.5.2-.5.5v7c0 .3.2.5.5.5h.5c.6 0 1 .4 1 1s-.4 1-1 1h-2c-.6 0-1-.4-1-1V6c0-.6.4-1 1-1h4l1.7-1.7c.2-.2.4-.3.7-.3h3.2c.3 0 .5.1.7.3L54 5h4c.6 0 1 .4 1 1v10c0 .6-.4 1-1 1zm-8-9c2.2 0 4 1.8 4 4s-1.8 4-4 4-4-1.8-4-4 1.8-4 4-4zm0 6c1.1 0 2-.9 2-2s-.9-2-2-2-2 .9-2 2 .9 2 2 2zm27.1-5c-.7.7-1.5 1-2.3 1-.8 0-1.6-.3-2.3-.9l-.2-.2C71.8 9.6 71 10 70 10c-.9 0-1.8-.4-2.3-1.1l-.2.2c-.6.6-1.4.9-2.3.9-.8 0-1.6-.3-2.3-.9-1.2-1.2-1.2-3.3 0-4.5L64.5 3c.6-.7 1.4-1 2.3-1h6.4c.8 0 1.6.3 2.2.9L77 4.5c1.3 1.2 1.3 3.3.1 4.5zm-1.5-3.1L74 4.3c-.2-.2-.6-.3-.8-.3h-6.4c-.2 0-.5 0-.8.3l-1.6 1.6c-.5.5-.5 1.2 0 1.7.2.3.5.4.8.4.3 0 .6-.1.8-.3l.2-.2 1.4-1.4c.1-.1.3-.1.4 0l1.2 1.5c.2.3.5.4.8.4.3 0 .6-.1.8-.4L72 6.1c.1-.1.2-.1.3 0l1.4 1.4.2.2c.2.2.5.3.9.3.3 0 .6-.1.8-.3.5-.6.5-1.3 0-1.8zM65 12c.6 0 1 .4 1 1v2.5c0 .3.2.5.5.5h7c.3 0 .5-.2.5-.5V13c0-.5.4-1 1-1 .5 0 1 .4 1 1v4c0 .5-.4 1-1 1H65c-.5 0-1-.4-1-1v-4c0-.6.4-1 1-1zm28 5h-6c-3.9 0-7-3.1-7-7s3.1-7 7-7h6c3.9 0 7 3.1 7 7s-3.1 7-7 7zm0-12h-6c-2.8 0-5 2.2-5 5s2.2 5 5 5h6c2.8 0 5-2.2 5-5s-2.2-5-5-5zm-6 8c-1.7 0-3-1.3-3-3s1.3-3 3-3 3 1.3 3 3-1.3 3-3 3zm30-5v9c0 .6-.4 1-1 1h-12c-.6 0-1-.4-1-1V8h-2V7c0-.6.4-1 1-1h4V3c0-.6.4-1 1-1h6c.6 0 1 .4 1 1v3h4c.6 0 1 .4 1 1v1h-2zm-5-4h-4v2h4V4zm3 4h-10v8h10V8zm-7.5 2h1c.3 0 .5.2.5.5v3c0 .3-.2.5-.5.5h-1c-.3 0-.5-.2-.5-.5v-3c0-.3.2-.5.5-.5zm4 0h1c.3 0 .5.2.5.5v3c0 .3-.2.5-.5.5h-1c-.3 0-.5-.2-.5-.5v-3c0-.3.2-.5.5-.5z"/><path fill="#F05451" d="M15 23c-.3-.6-.7-1-1.3-1H6.2c-.6 0-.9.4-1.2 1l-4 7v7c0 .6.4 1 1 1h16c.6 0 1-.4 1-1v-7l-4-7zm-8.3 1h6.5l2.9 5h-3.6c-.3 0-.5.2-.5.5v.4c0 1-.8 2-1.8 2.1-1.2.1-2.2-.8-2.2-2v-.5c0-.3-.2-.5-.5-.5H3.9l2.8-5zm9.8 12h-13c-.3 0-.5-.2-.5-.5V31h3.1c.4 1.7 2 3 3.9 3s3.4-1.3 3.9-3H17v4.5c0 .3-.2.5-.5.5z"/><path fill-rule="evenodd" clip-rule="evenodd" fill="#F05451" d="M37.7 26.5L30.5 34H26v-4.5l7.5-7.2c.2-.2.5-.3.7-.3.3 0 .5.1.7.3l2.8 2.8c.4.4.4 1 0 1.4zm-3.5-2.1L28 30.3V32h1.7l5.9-6.2-1.4-1.4zM27 24h-2.5c-.3 0-.5.2-.5.5v11c0 .3.2.5.5.5h11c.3 0 .5-.2.5-.5V33c0-.6.4-1 1-1s1 .4 1 1v4c0 .6-.4 1-1 1H23c-.6 0-1-.4-1-1V23c0-.6.4-1 1-1h4c.6 0 1 .4 1 1s-.4 1-1 1zm31 13h-2c-.5 0-1-.5-1-1 0-.6.4-1 1-1h.5c.3 0 .5-.2.5-.5v-7c0-.3-.2-.5-.5-.5h-3.3l-.6-.6-1.4-1.4h-2.3l-1.4 1.4-.7.6h-3.3c-.3 0-.5.2-.5.5v7c0 .3.2.5.5.5h.5c.6 0 1 .4 1 1s-.4 1-1 1h-2c-.6 0-1-.4-1-1V26c0-.6.4-1 1-1h4l1.7-1.7c.2-.2.4-.3.7-.3h3.2c.3 0 .5.1.7.3L54 25h4c.6 0 1 .4 1 1v10c0 .6-.4 1-1 1zm-8-9c2.2 0 4 1.8 4 4s-1.8 4-4 4-4-1.8-4-4 1.8-4 4-4zm0 6c1.1 0 2-.9 2-2s-.9-2-2-2-2 .9-2 2 .9 2 2 2zm27.1-5c-.7.7-1.5 1-2.3 1-.8 0-1.6-.3-2.3-.9l-.2-.2c-.5.7-1.3 1.1-2.3 1.1-.9 0-1.8-.4-2.3-1.1l-.2.2c-.6.6-1.4.9-2.3.9-.8 0-1.6-.3-2.3-.9-1.2-1.2-1.2-3.3 0-4.5l1.6-1.6c.6-.6 1.4-.9 2.2-.9h6.5c.8 0 1.6.3 2.2.9l1.6 1.6c1.3 1.1 1.3 3.2.1 4.4zm-1.5-3.1L74 24.3c-.3-.3-.7-.3-.8-.3h-6.4c-.2 0-.5 0-.8.3l-1.6 1.6c-.5.5-.5 1.2 0 1.7.2.2.5.3.8.3.3 0 .6-.1.8-.3l.2-.2 1.4-1.4c.1-.1.3-.1.3 0l1.2 1.5c.2.2.5.4.8.4h.1c.3 0 .6-.1.8-.4l1.3-1.6c.1-.1.2-.1.3 0l1.4 1.4.2.2c.2.2.5.3.8.3.3 0 .6-.1.8-.3.5-.4.5-1.1 0-1.6zM65 32c.6 0 1 .4 1 1v2.5c0 .3.2.5.5.5h7c.3 0 .5-.2.5-.5V33c0-.5.4-1 1-1 .5 0 1 .4 1 1v4c0 .5-.4 1-1 1H65c-.5 0-1-.4-1-1v-4c0-.6.4-1 1-1zm28 5h-6c-3.9 0-7-3.1-7-7s3.1-7 7-7h6c3.9 0 7 3.1 7 7s-3.1 7-7 7zm0-12h-6c-2.8 0-5 2.2-5 5s2.2 5 5 5h6c2.8 0 5-2.2 5-5s-2.2-5-5-5zm-6 8c-1.7 0-3-1.3-3-3s1.3-3 3-3 3 1.3 3 3-1.3 3-3 3zm30-5v9c0 .6-.4 1-1 1h-12c-.6 0-1-.4-1-1v-9h-2v-1c0-.6.4-1 1-1h4v-3c0-.6.4-1 1-1h6c.6 0 1 .4 1 1v3h4c.6 0 1 .4 1 1v1h-2zm-5-4h-4v2h4v-2zm3 4h-10v8h10v-8zm-7.5 2h1c.3 0 .5.2.5.5v3c0 .3-.2.5-.5.5h-1c-.3 0-.5-.2-.5-.5v-3c0-.3.2-.5.5-.5zm4 0h1c.3 0 .5.2.5.5v3c0 .3-.2.5-.5.5h-1c-.3 0-.5-.2-.5-.5v-3c0-.3.2-.5.5-.5z"/></svg>